<?xml version="1.0"?>
<svg width="3330" height="1594" viewBox="0 0 3330 1594"
  xml:space="preserve"
  version="1.1"
  xmlns="http://www.w3.org/2000/svg">

<title>SVG graphic of net "C:\Users\Abeygunawardane\OneDrive\BN paper\The Net\Investmentlocation_BN_20200616_FINAL_MASTER_20201028_trial_color.neta" generated by MullerD_2 at IAMO using Netica 5.22x on Apr 16, 2021 at 09:49:58 UTC.</title>

<polygon points="1515.95,1041.41 1519.61,1048.52 1508,1050 " fill="#000000" stroke="none"/>
<polyline points="1656,972 1517,1045 " stroke="#000000" stroke-width="1" fill="none"/>
<polygon points="1502.34,1040.16 1507.18,1046.53 1496,1050 " fill="#000000" stroke="none"/>
<polyline points="1770,840 1504,1044 " stroke="#000000" stroke-width="1" fill="none"/>
<polygon points="1482.88,1038.45 1489.86,1042.36 1481,1050 " fill="#000000" stroke="none"/>
<polyline points="1686,681 1486,1041 " stroke="#000000" stroke-width="1" fill="none"/>
<polygon points="1475.83,1038.3 1483.39,1040.92 1476,1050 " fill="#000000" stroke="none"/>
<polyline points="1656,529 1479,1040 " stroke="#000000" stroke-width="1" fill="none"/>
<polygon points="1552.13,1001.68 1554.7,1009.25 1543,1009 " fill="#000000" stroke="none"/>
<polyline points="1656,972 1553,1006 " stroke="#000000" stroke-width="1" fill="none"/>
<polygon points="1530.98,994.601 1535.38,1001.28 1524,1004 " fill="#000000" stroke="none"/>
<polyline points="1770,840 1533,998 " stroke="#000000" stroke-width="1" fill="none"/>
<polygon points="1506.9,992.451 1513.88,996.372 1505,1004 " fill="#000000" stroke="none"/>
<polyline points="1686,681 1510,995 " stroke="#000000" stroke-width="1" fill="none"/>
<polygon points="1499.64,992.301 1507.24,994.805 1500,1004 " fill="#000000" stroke="none"/>
<polyline points="1656,529 1503,994 " stroke="#000000" stroke-width="1" fill="none"/>
<polygon points="1553.77,972.417 1554.2,980.406 1543,977 " fill="#000000" stroke="none"/>
<polyline points="1656,972 1553,976 " stroke="#000000" stroke-width="1" fill="none"/>
<polygon points="1537.16,949.606 1540.64,956.806 1529,958 " fill="#000000" stroke="none"/>
<polyline points="1770,840 1538,953 " stroke="#000000" stroke-width="1" fill="none"/>
<polygon points="1503.83,946.641 1510.46,951.109 1501,958 " fill="#000000" stroke="none"/>
<polyline points="1686,681 1507,949 " stroke="#000000" stroke-width="1" fill="none"/>
<polygon points="1495.14,946.296 1502.62,949.119 1495,958 " fill="#000000" stroke="none"/>
<polyline points="1656,529 1499,948 " stroke="#000000" stroke-width="1" fill="none"/>
<polygon points="1766,931 1774,931 1770,942 " fill="#000000" stroke="none"/>
<polyline points="1770,840 1770,932 " stroke="#000000" stroke-width="1" fill="none"/>
<polygon points="1731,976 1731,968 1742,972 " fill="#000000" stroke="none"/>
<polyline points="1656,972 1732,972 " stroke="#000000" stroke-width="1" fill="none"/>
<polygon points="1644.05,1009.67 1636.78,1006.33 1645,998 " fill="#000000" stroke="none"/>
<polyline points="1620,1055 1641,1008 " stroke="#000000" stroke-width="1" fill="none"/>
<polygon points="1691.71,1002.73 1686.17,1008.5 1681,998 " fill="#000000" stroke="none"/>
<polyline points="1740,1055 1689,1005 " stroke="#000000" stroke-width="1" fill="none"/>
<polygon points="1837.69,862.538 1834.62,869.923 1826,862 " fill="#000000" stroke="none"/>
<polyline points="1906,894 1836,866 " stroke="#000000" stroke-width="1" fill="none"/>
<polygon points="1836.19,827.246 1837.51,835.137 1826,833 " fill="#000000" stroke="none"/>
<polyline points="1906,822 1836,831 " stroke="#000000" stroke-width="1" fill="none"/>
<polygon points="1555.57,948.235 1554,956.08 1544,950 " fill="#000000" stroke="none"/>
<polyline points="1656,972 1554,952 " stroke="#000000" stroke-width="1" fill="none"/>
<polygon points="1532.4,906.021 1534.68,913.687 1523,913 " fill="#000000" stroke="none"/>
<polyline points="1770,840 1533,910 " stroke="#000000" stroke-width="1" fill="none"/>
<polygon points="1478.52,902.202 1484.4,907.626 1474,913 " fill="#000000" stroke="none"/>
<polyline points="1686,681 1481,905 " stroke="#000000" stroke-width="1" fill="none"/>
<polygon points="1466.34,901.372 1473.5,904.95 1465,913 " fill="#000000" stroke="none"/>
<polyline points="1656,529 1470,904 " stroke="#000000" stroke-width="1" fill="none"/>
<polygon points="1536.64,909.225 1533.13,916.416 1525,908 " fill="#000000" stroke="none"/>
<polyline points="1656,972 1534,913 " stroke="#000000" stroke-width="1" fill="none"/>
<polygon points="1556.16,872.187 1557.52,880.071 1546,878 " fill="#000000" stroke="none"/>
<polyline points="1770,840 1556,876 " stroke="#000000" stroke-width="1" fill="none"/>
<polygon points="1508.88,856.362 1514.58,861.984 1504,867 " fill="#000000" stroke="none"/>
<polyline points="1686,681 1511,860 " stroke="#000000" stroke-width="1" fill="none"/>
<polygon points="1495.19,855.356 1502.39,858.841 1494,867 " fill="#000000" stroke="none"/>
<polyline points="1656,529 1499,858 " stroke="#000000" stroke-width="1" fill="none"/>
<polygon points="1505.57,810.4 1512.65,814.116 1504,822 " fill="#000000" stroke="none"/>
<polyline points="1656,529 1509,813 " stroke="#000000" stroke-width="1" fill="none"/>
<polygon points="1523.93,811.906 1529.03,818.07 1518,822 " fill="#000000" stroke="none"/>
<polyline points="1686,681 1526,815 " stroke="#000000" stroke-width="1" fill="none"/>
<polygon points="1553.95,837.872 1554.05,845.871 1543,842 " fill="#000000" stroke="none"/>
<polyline points="1770,840 1553,842 " stroke="#000000" stroke-width="1" fill="none"/>
<polygon points="1529.12,866.646 1524.18,872.939 1518,863 " fill="#000000" stroke="none"/>
<polyline points="1656,972 1526,869 " stroke="#000000" stroke-width="1" fill="none"/>
<polygon points="1522.42,822.327 1516.57,827.777 1512,817 " fill="#000000" stroke="none"/>
<polyline points="1656,972 1519,825 " stroke="#000000" stroke-width="1" fill="none"/>
<polygon points="1554.5,800.83 1553.21,808.725 1543,803 " fill="#000000" stroke="none"/>
<polyline points="1770,840 1553,805 " stroke="#000000" stroke-width="1" fill="none"/>
<polygon points="1534.48,766.994 1538.51,773.9 1527,776 " fill="#000000" stroke="none"/>
<polyline points="1686,681 1536,771 " stroke="#000000" stroke-width="1" fill="none"/>
<polygon points="1508.32,764.528 1515.15,768.698 1506,776 " fill="#000000" stroke="none"/>
<polyline points="1656,529 1511,767 " stroke="#000000" stroke-width="1" fill="none"/>
<polygon points="1517.75,777.471 1511.32,782.225 1508,771 " fill="#000000" stroke="none"/>
<polyline points="1656,972 1514,779 " stroke="#000000" stroke-width="1" fill="none"/>
<polygon points="1554.7,765.622 1552.21,773.225 1543,766 " fill="#000000" stroke="none"/>
<polyline points="1770,840 1553,769 " stroke="#000000" stroke-width="1" fill="none"/>
<polygon points="1552.03,726.548 1554.7,734.087 1543,734 " fill="#000000" stroke="none"/>
<polyline points="1686,681 1553,730 " stroke="#000000" stroke-width="1" fill="none"/>
<polygon points="1511.35,718.784 1517.77,723.555 1508,730 " fill="#000000" stroke="none"/>
<polyline points="1656,529 1514,722 " stroke="#000000" stroke-width="1" fill="none"/>
<polygon points="1515.15,733.302 1508.32,737.472 1506,726 " fill="#000000" stroke="none"/>
<polyline points="1656,972 1511,735 " stroke="#000000" stroke-width="1" fill="none"/>
<polygon points="1545.65,727.164 1542.18,734.373 1534,726 " fill="#000000" stroke="none"/>
<polyline points="1770,840 1543,731 " stroke="#000000" stroke-width="1" fill="none"/>
<polygon points="1553.4,693.625 1554.42,701.559 1543,699 " fill="#000000" stroke="none"/>
<polyline points="1686,681 1553,698 " stroke="#000000" stroke-width="1" fill="none"/>
<polygon points="1516.57,674.223 1522.42,679.673 1512,685 " fill="#000000" stroke="none"/>
<polyline points="1656,529 1519,677 " stroke="#000000" stroke-width="1" fill="none"/>
<polygon points="1503.83,687.682 1496.83,691.56 1495,680 " fill="#000000" stroke="none"/>
<polyline points="1656,972 1500,689 " stroke="#000000" stroke-width="1" fill="none"/>
<polygon points="1527.44,682.462 1523.19,689.237 1516,680 " fill="#000000" stroke="none"/>
<polyline points="1770,840 1525,686 " stroke="#000000" stroke-width="1" fill="none"/>
<polygon points="1555.38,662.28 1554.47,670.228 1544,665 " fill="#000000" stroke="none"/>
<polyline points="1686,681 1554,666 " stroke="#000000" stroke-width="1" fill="none"/>
<polygon points="1517.44,629.227 1522.21,635.648 1511,639 " fill="#000000" stroke="none"/>
<polyline points="1656,529 1519,633 " stroke="#000000" stroke-width="1" fill="none"/>
<polygon points="1511.2,643.355 1503.92,646.669 1503,635 " fill="#000000" stroke="none"/>
<polyline points="1656,972 1507,645 " stroke="#000000" stroke-width="1" fill="none"/>
<polygon points="1529.06,638.821 1524.03,645.035 1518,635 " fill="#000000" stroke="none"/>
<polyline points="1770,840 1526,642 " stroke="#000000" stroke-width="1" fill="none"/>
<polygon points="1554.7,630.829 1552.08,638.387 1543,631 " fill="#000000" stroke="none"/>
<polyline points="1686,681 1553,634 " stroke="#000000" stroke-width="1" fill="none"/>
<polygon points="1540.01,585.461 1543.62,592.598 1532,594 " fill="#000000" stroke="none"/>
<polyline points="1656,529 1541,589 " stroke="#000000" stroke-width="1" fill="none"/>
<polygon points="1674.84,646.045 1682.68,644.416 1681,656 " fill="#000000" stroke="none"/>
<polyline points="1656,529 1679,646 " stroke="#000000" stroke-width="1" fill="none"/>
<polygon points="1686.79,718.367 1678.84,717.505 1684,707 " fill="#000000" stroke="none"/>
<polyline points="1656,972 1683,717 " stroke="#000000" stroke-width="1" fill="none"/>
<polygon points="1707.73,714.798 1700.68,718.583 1699,707 " fill="#000000" stroke="none"/>
<polyline points="1770,840 1704,716 " stroke="#000000" stroke-width="1" fill="none"/>
<polygon points="1509.82,597.713 1502.39,600.698 1502,589 " fill="#000000" stroke="none"/>
<polyline points="1656,972 1506,599 " stroke="#000000" stroke-width="1" fill="none"/>
<polygon points="1524.66,593.833 1519.07,599.552 1514,589 " fill="#000000" stroke="none"/>
<polyline points="1770,840 1522,596 " stroke="#000000" stroke-width="1" fill="none"/>
<polygon points="1538.53,591.038 1534.52,597.965 1527,589 " fill="#000000" stroke="none"/>
<polyline points="1686,681 1536,594 " stroke="#000000" stroke-width="1" fill="none"/>
<polygon points="1552.67,549.41 1554.65,557.163 1543,556 " fill="#000000" stroke="none"/>
<polyline points="1656,529 1553,553 " stroke="#000000" stroke-width="1" fill="none"/>
<polygon points="1508.51,552.98 1500.99,555.705 1501,544 " fill="#000000" stroke="none"/>
<polyline points="1656,972 1505,554 " stroke="#000000" stroke-width="1" fill="none"/>
<polygon points="1521.26,549.626 1515.25,554.905 1511,544 " fill="#000000" stroke="none"/>
<polyline points="1770,840 1518,552 " stroke="#000000" stroke-width="1" fill="none"/>
<polygon points="1529.06,547.826 1524.02,554.038 1518,544 " fill="#000000" stroke="none"/>
<polyline points="1686,681 1526,551 " stroke="#000000" stroke-width="1" fill="none"/>
<polygon points="1553.07,524.197 1552.93,532.196 1542,528 " fill="#000000" stroke="none"/>
<polyline points="1656,529 1552,528 " stroke="#000000" stroke-width="1" fill="none"/>
<polygon points="1660,566 1652,566 1656,555 " fill="#000000" stroke="none"/>
<polyline points="1656,972 1656,566 " stroke="#000000" stroke-width="1" fill="none"/>
<polygon points="1672.56,563.934 1665.06,566.705 1665,555 " fill="#000000" stroke="none"/>
<polyline points="1770,840 1669,565 " stroke="#000000" stroke-width="1" fill="none"/>
<g id="economic_financial">
<rect x="1398" y="1050" width="143" height="40" fill="#e0fef0" stroke-width="0"/>
<text x="1407" y="1063" font-family="Calibri" font-size="8.75" font-weight="bold">Economic and financial conditions</text>
<line x1="1398" y1="1066" x2="1541" y2="1066" stroke="#000000" stroke-width="1"/>
<text x="1405" y="1077" font-family="Calibri" font-size="8.75">low</text>
<text x="1405" y="1087" font-family="Calibri" font-size="8.75">high</text>
<text x="1477" y="1077" font-family="Calibri" font-size="8.75">95.7</text>
<text x="1477" y="1087" font-family="Calibri" font-size="8.75">4.34</text>
<rect x="1496" y="1066" width="45" height="24" fill="#b3cbc0" stroke-width="0"/>
<line x1="1507" y1="1067" x2="1507" y2="1089" stroke="black" stroke-width="1" stroke-dasharray="3,3"/>
<line x1="1519" y1="1067" x2="1519" y2="1089" stroke="black" stroke-width="1" stroke-dasharray="3,3"/>
<line x1="1530" y1="1067" x2="1530" y2="1089" stroke="black" stroke-width="1" stroke-dasharray="3,3"/>
<rect x="1496" y="1071" width="43" height="5" fill="#000000" stroke-width="0"/>
<rect x="1496" y="1081" width="2" height="5" fill="#000000" stroke-width="0"/>
<rect x="1496" y="1066" width="45" height="24" fill-opacity="0" stroke="#000000" stroke-width="1"/>
<rect x="1398" y="1050" width="143" height="40" fill-opacity="0" stroke="#000000" stroke-width="1"/>
</g>
<g id="other_inputs">
<rect x="1445" y="1004" width="97" height="40" fill="#e0fef0" stroke-width="0"/>
<text x="1457" y="1017" font-family="Calibri" font-size="8.75" font-weight="bold">Other inputs supply</text>
<line x1="1445" y1="1020" x2="1542" y2="1020" stroke="#000000" stroke-width="1"/>
<text x="1452" y="1031" font-family="Calibri" font-size="8.75">low</text>
<text x="1452" y="1041" font-family="Calibri" font-size="8.75">high</text>
<text x="1478" y="1031" font-family="Calibri" font-size="8.75">86.6</text>
<text x="1478" y="1041" font-family="Calibri" font-size="8.75">13.4</text>
<rect x="1497" y="1020" width="45" height="24" fill="#b3cbc0" stroke-width="0"/>
<line x1="1508" y1="1021" x2="1508" y2="1043" stroke="black" stroke-width="1" stroke-dasharray="3,3"/>
<line x1="1520" y1="1021" x2="1520" y2="1043" stroke="black" stroke-width="1" stroke-dasharray="3,3"/>
<line x1="1531" y1="1021" x2="1531" y2="1043" stroke="black" stroke-width="1" stroke-dasharray="3,3"/>
<rect x="1497" y="1025" width="39" height="5" fill="#000000" stroke-width="0"/>
<rect x="1497" y="1035" width="6" height="5" fill="#000000" stroke-width="0"/>
<rect x="1497" y="1020" width="45" height="24" fill-opacity="0" stroke="#000000" stroke-width="1"/>
<rect x="1445" y="1004" width="97" height="40" fill-opacity="0" stroke="#000000" stroke-width="1"/>
</g>
<g id="socio_cultural">
<rect x="1434" y="958" width="108" height="40" fill="#e0fef0" stroke-width="0"/>
<text x="1443" y="971" font-family="Calibri" font-size="8.75" font-weight="bold">Socio-cultural conditions</text>
<line x1="1434" y1="974" x2="1542" y2="974" stroke="#000000" stroke-width="1"/>
<text x="1441" y="985" font-family="Calibri" font-size="8.75">low</text>
<text x="1441" y="995" font-family="Calibri" font-size="8.75">high</text>
<text x="1478" y="985" font-family="Calibri" font-size="8.75">69.2</text>
<text x="1478" y="995" font-family="Calibri" font-size="8.75">30.8</text>
<rect x="1497" y="974" width="45" height="24" fill="#b3cbc0" stroke-width="0"/>
<line x1="1508" y1="975" x2="1508" y2="997" stroke="black" stroke-width="1" stroke-dasharray="3,3"/>
<line x1="1520" y1="975" x2="1520" y2="997" stroke="black" stroke-width="1" stroke-dasharray="3,3"/>
<line x1="1531" y1="975" x2="1531" y2="997" stroke="black" stroke-width="1" stroke-dasharray="3,3"/>
<rect x="1497" y="979" width="31" height="5" fill="#000000" stroke-width="0"/>
<rect x="1497" y="989" width="14" height="5" fill="#000000" stroke-width="0"/>
<rect x="1497" y="974" width="45" height="24" fill-opacity="0" stroke="#000000" stroke-width="1"/>
<rect x="1434" y="958" width="108" height="40" fill-opacity="0" stroke="#000000" stroke-width="1"/>
</g>
<g id="investment_location">
<rect x="1742" y="942" width="188" height="60" fill="#87e2d5" stroke-width="0"/>
<text x="1799" y="955" font-family="Calibri" font-size="8.75" font-weight="bold">Investment location</text>
<line x1="1742" y1="958" x2="1930" y2="958" stroke="#000000" stroke-width="1"/>
<text x="1749" y="969" font-family="Calibri" font-size="8.75">populated smallholder land</text>
<text x="1749" y="979" font-family="Calibri" font-size="8.75">subsistence frontier</text>
<text x="1749" y="989" font-family="Calibri" font-size="8.75">emerging commercial front...</text>
<text x="1749" y="999" font-family="Calibri" font-size="8.75">established market</text>
<text x="1866" y="969" font-family="Calibri" font-size="8.75">30.4</text>
<text x="1866" y="979" font-family="Calibri" font-size="8.75">48.6</text>
<text x="1866" y="989" font-family="Calibri" font-size="8.75">12.9</text>
<text x="1866" y="999" font-family="Calibri" font-size="8.75">8.09</text>
<rect x="1885" y="958" width="45" height="44" fill="#6cb5aa" stroke-width="0"/>
<line x1="1896" y1="959" x2="1896" y2="1001" stroke="black" stroke-width="1" stroke-dasharray="3,3"/>
<line x1="1908" y1="959" x2="1908" y2="1001" stroke="black" stroke-width="1" stroke-dasharray="3,3"/>
<line x1="1919" y1="959" x2="1919" y2="1001" stroke="black" stroke-width="1" stroke-dasharray="3,3"/>
<rect x="1885" y="963" width="14" height="5" fill="#000000" stroke-width="0"/>
<rect x="1885" y="973" width="22" height="5" fill="#000000" stroke-width="0"/>
<rect x="1885" y="983" width="6" height="5" fill="#000000" stroke-width="0"/>
<rect x="1885" y="993" width="4" height="5" fill="#000000" stroke-width="0"/>
<rect x="1885" y="958" width="45" height="44" fill-opacity="0" stroke="#000000" stroke-width="1"/>
<rect x="1742" y="942" width="188" height="60" fill-opacity="0" stroke="#000000" stroke-width="1"/>
</g>
<g id="POPDENS2000">
<rect x="1850" y="861" width="111" height="66" fill="#b9e9ee" stroke-width="0"/>
<text x="1871" y="874" font-family="Calibri" font-size="8.75" font-weight="bold">Population density</text>
<line x1="1850" y1="877" x2="1961" y2="877" stroke="#000000" stroke-width="1"/>
<text x="1857" y="888" font-family="Calibri" font-size="8.75">low</text>
<text x="1857" y="898" font-family="Calibri" font-size="8.75">medium</text>
<text x="1857" y="908" font-family="Calibri" font-size="8.75">high</text>
<text x="1897" y="888" font-family="Calibri" font-size="8.75">44.6</text>
<text x="1897" y="898" font-family="Calibri" font-size="8.75">34.7</text>
<text x="1897" y="908" font-family="Calibri" font-size="8.75">20.7</text>
<rect x="1916" y="877" width="45" height="34" fill="#94babe" stroke-width="0"/>
<line x1="1927" y1="878" x2="1927" y2="910" stroke="black" stroke-width="1" stroke-dasharray="3,3"/>
<line x1="1939" y1="878" x2="1939" y2="910" stroke="black" stroke-width="1" stroke-dasharray="3,3"/>
<line x1="1950" y1="878" x2="1950" y2="910" stroke="black" stroke-width="1" stroke-dasharray="3,3"/>
<rect x="1916" y="882" width="20" height="5" fill="#000000" stroke-width="0"/>
<rect x="1916" y="892" width="16" height="5" fill="#000000" stroke-width="0"/>
<rect x="1916" y="902" width="9" height="5" fill="#000000" stroke-width="0"/>
<rect x="1916" y="877" width="45" height="34" fill-opacity="0" stroke="#000000" stroke-width="1"/>
<line x1="1850" y1="911" x2="1961" y2="911" stroke="#000000" stroke-width="1"/>
<text x="1889" y="923" font-family="Calibri" font-size="8.75">44.8 &#177; 47</text>
<rect x="1850" y="861" width="111" height="66" fill-opacity="0" stroke="#000000" stroke-width="1"/>
</g>
<g id="UNCONVERTEDLAND">
<rect x="1850" y="789" width="111" height="66" fill="#b9e9ee" stroke-width="0"/>
<text x="1872" y="802" font-family="Calibri" font-size="8.75" font-weight="bold">Unconverted land</text>
<line x1="1850" y1="805" x2="1961" y2="805" stroke="#000000" stroke-width="1"/>
<text x="1857" y="816" font-family="Calibri" font-size="8.75">low</text>
<text x="1857" y="826" font-family="Calibri" font-size="8.75">medium</text>
<text x="1857" y="836" font-family="Calibri" font-size="8.75">high</text>
<text x="1897" y="816" font-family="Calibri" font-size="8.75">33.9</text>
<text x="1897" y="826" font-family="Calibri" font-size="8.75">58.7</text>
<text x="1897" y="836" font-family="Calibri" font-size="8.75">7.44</text>
<rect x="1916" y="805" width="45" height="34" fill="#94babe" stroke-width="0"/>
<line x1="1927" y1="806" x2="1927" y2="838" stroke="black" stroke-width="1" stroke-dasharray="3,3"/>
<line x1="1939" y1="806" x2="1939" y2="838" stroke="black" stroke-width="1" stroke-dasharray="3,3"/>
<line x1="1950" y1="806" x2="1950" y2="838" stroke="black" stroke-width="1" stroke-dasharray="3,3"/>
<rect x="1916" y="810" width="15" height="5" fill="#000000" stroke-width="0"/>
<rect x="1916" y="820" width="26" height="5" fill="#000000" stroke-width="0"/>
<rect x="1916" y="830" width="3" height="5" fill="#000000" stroke-width="0"/>
<rect x="1916" y="805" width="45" height="34" fill-opacity="0" stroke="#000000" stroke-width="1"/>
<line x1="1850" y1="839" x2="1961" y2="839" stroke="#000000" stroke-width="1"/>
<text x="1881" y="851" font-family="Calibri" font-size="8.75">0.121 &#177; 0.059</text>
<rect x="1850" y="789" width="111" height="66" fill-opacity="0" stroke="#000000" stroke-width="1"/>
</g>
<g id="agglomeration_economies">
<rect x="1599" y="947" width="113" height="50" fill="#b9e9ee" stroke-width="0"/>
<text x="1606" y="960" font-family="Calibri" font-size="8.75" font-weight="bold">Agglomeration economies</text>
<line x1="1599" y1="963" x2="1712" y2="963" stroke="#000000" stroke-width="1"/>
<text x="1606" y="974" font-family="Calibri" font-size="8.75">low</text>
<text x="1606" y="984" font-family="Calibri" font-size="8.75">medium</text>
<text x="1606" y="994" font-family="Calibri" font-size="8.75">high</text>
<text x="1648" y="974" font-family="Calibri" font-size="8.75">74.7</text>
<text x="1648" y="984" font-family="Calibri" font-size="8.75">21.4</text>
<text x="1648" y="994" font-family="Calibri" font-size="8.75">3.93</text>
<rect x="1667" y="963" width="45" height="34" fill="#94babe" stroke-width="0"/>
<line x1="1678" y1="964" x2="1678" y2="996" stroke="black" stroke-width="1" stroke-dasharray="3,3"/>
<line x1="1690" y1="964" x2="1690" y2="996" stroke="black" stroke-width="1" stroke-dasharray="3,3"/>
<line x1="1701" y1="964" x2="1701" y2="996" stroke="black" stroke-width="1" stroke-dasharray="3,3"/>
<rect x="1667" y="968" width="34" height="5" fill="#000000" stroke-width="0"/>
<rect x="1667" y="978" width="10" height="5" fill="#000000" stroke-width="0"/>
<rect x="1667" y="988" width="2" height="5" fill="#000000" stroke-width="0"/>
<rect x="1667" y="963" width="45" height="34" fill-opacity="0" stroke="#000000" stroke-width="1"/>
<rect x="1599" y="947" width="113" height="50" fill-opacity="0" stroke="#000000" stroke-width="1"/>
</g>
<g id="FIELDCALC">
<rect x="1564" y="1022" width="111" height="66" fill="#b9e9ee" stroke-width="0"/>
<text x="1603" y="1035" font-family="Calibri" font-size="8.75" font-weight="bold">Field size</text>
<line x1="1564" y1="1038" x2="1675" y2="1038" stroke="#000000" stroke-width="1"/>
<text x="1571" y="1049" font-family="Calibri" font-size="8.75">large</text>
<text x="1571" y="1059" font-family="Calibri" font-size="8.75">medium</text>
<text x="1571" y="1069" font-family="Calibri" font-size="8.75">small</text>
<text x="1611" y="1049" font-family="Calibri" font-size="8.75">1.65</text>
<text x="1611" y="1059" font-family="Calibri" font-size="8.75">34.7</text>
<text x="1611" y="1069" font-family="Calibri" font-size="8.75">63.6</text>
<rect x="1630" y="1038" width="45" height="34" fill="#94babe" stroke-width="0"/>
<line x1="1641" y1="1039" x2="1641" y2="1071" stroke="black" stroke-width="1" stroke-dasharray="3,3"/>
<line x1="1653" y1="1039" x2="1653" y2="1071" stroke="black" stroke-width="1" stroke-dasharray="3,3"/>
<line x1="1664" y1="1039" x2="1664" y2="1071" stroke="black" stroke-width="1" stroke-dasharray="3,3"/>
<rect x="1630" y="1043" width="1" height="5" fill="#000000" stroke-width="0"/>
<rect x="1630" y="1053" width="16" height="5" fill="#000000" stroke-width="0"/>
<rect x="1630" y="1063" width="29" height="5" fill="#000000" stroke-width="0"/>
<rect x="1630" y="1038" width="45" height="34" fill-opacity="0" stroke="#000000" stroke-width="1"/>
<line x1="1564" y1="1072" x2="1675" y2="1072" stroke="#000000" stroke-width="1"/>
<text x="1602" y="1084" font-family="Calibri" font-size="8.75">3.6 &#177; 0.68</text>
<rect x="1564" y="1022" width="111" height="66" fill-opacity="0" stroke="#000000" stroke-width="1"/>
</g>
<g id="MARKETACTIVITY">
<rect x="1684" y="1022" width="111" height="66" fill="#b9e9ee" stroke-width="0"/>
<text x="1712" y="1035" font-family="Calibri" font-size="8.75" font-weight="bold">Market activity</text>
<line x1="1684" y1="1038" x2="1795" y2="1038" stroke="#000000" stroke-width="1"/>
<text x="1691" y="1049" font-family="Calibri" font-size="8.75">low</text>
<text x="1691" y="1059" font-family="Calibri" font-size="8.75">medium</text>
<text x="1691" y="1069" font-family="Calibri" font-size="8.75">high</text>
<text x="1731" y="1049" font-family="Calibri" font-size="8.75">73.6</text>
<text x="1731" y="1059" font-family="Calibri" font-size="8.75">26.4</text>
<text x="1735" y="1069" font-family="Calibri" font-size="8.75"> 0 +</text>
<rect x="1750" y="1038" width="45" height="34" fill="#94babe" stroke-width="0"/>
<line x1="1761" y1="1039" x2="1761" y2="1071" stroke="black" stroke-width="1" stroke-dasharray="3,3"/>
<line x1="1773" y1="1039" x2="1773" y2="1071" stroke="black" stroke-width="1" stroke-dasharray="3,3"/>
<line x1="1784" y1="1039" x2="1784" y2="1071" stroke="black" stroke-width="1" stroke-dasharray="3,3"/>
<rect x="1750" y="1043" width="33" height="5" fill="#000000" stroke-width="0"/>
<rect x="1750" y="1053" width="12" height="5" fill="#000000" stroke-width="0"/>
<rect x="1750" y="1038" width="45" height="34" fill-opacity="0" stroke="#000000" stroke-width="1"/>
<line x1="1684" y1="1072" x2="1795" y2="1072" stroke="#000000" stroke-width="1"/>
<text x="1712" y="1084" font-family="Calibri" font-size="8.75">0.0897 &#177; 0.077</text>
<rect x="1684" y="1022" width="111" height="66" fill-opacity="0" stroke="#000000" stroke-width="1"/>
</g>
<g id="frontier">
<rect x="1714" y="815" width="111" height="50" fill="#b9e9ee" stroke-width="0"/>
<text x="1737" y="828" font-family="Calibri" font-size="8.75" font-weight="bold">Resource frontier</text>
<line x1="1714" y1="831" x2="1825" y2="831" stroke="#000000" stroke-width="1"/>
<text x="1721" y="842" font-family="Calibri" font-size="8.75">low</text>
<text x="1721" y="852" font-family="Calibri" font-size="8.75">medium</text>
<text x="1721" y="862" font-family="Calibri" font-size="8.75">high</text>
<text x="1761" y="842" font-family="Calibri" font-size="8.75">28.1</text>
<text x="1761" y="852" font-family="Calibri" font-size="8.75">52.1</text>
<text x="1761" y="862" font-family="Calibri" font-size="8.75">19.9</text>
<rect x="1780" y="831" width="45" height="34" fill="#94babe" stroke-width="0"/>
<line x1="1791" y1="832" x2="1791" y2="864" stroke="black" stroke-width="1" stroke-dasharray="3,3"/>
<line x1="1803" y1="832" x2="1803" y2="864" stroke="black" stroke-width="1" stroke-dasharray="3,3"/>
<line x1="1814" y1="832" x2="1814" y2="864" stroke="black" stroke-width="1" stroke-dasharray="3,3"/>
<rect x="1780" y="836" width="13" height="5" fill="#000000" stroke-width="0"/>
<rect x="1780" y="846" width="23" height="5" fill="#000000" stroke-width="0"/>
<rect x="1780" y="856" width="9" height="5" fill="#000000" stroke-width="0"/>
<rect x="1780" y="831" width="45" height="34" fill-opacity="0" stroke="#000000" stroke-width="1"/>
<rect x="1714" y="815" width="111" height="50" fill-opacity="0" stroke="#000000" stroke-width="1"/>
</g>
<g id="impact">
<rect x="1368" y="913" width="175" height="40" fill="#e0fef0" stroke-width="0"/>
<text x="1376" y="926" font-family="Calibri" font-size="8.75" font-weight="bold">Socio-economic and environmenta impact</text>
<line x1="1368" y1="929" x2="1543" y2="929" stroke="#000000" stroke-width="1"/>
<text x="1375" y="940" font-family="Calibri" font-size="8.75">low</text>
<text x="1375" y="950" font-family="Calibri" font-size="8.75">high</text>
<text x="1479" y="940" font-family="Calibri" font-size="8.75">95.8</text>
<text x="1479" y="950" font-family="Calibri" font-size="8.75">4.23</text>
<rect x="1498" y="929" width="45" height="24" fill="#b3cbc0" stroke-width="0"/>
<line x1="1509" y1="930" x2="1509" y2="952" stroke="black" stroke-width="1" stroke-dasharray="3,3"/>
<line x1="1521" y1="930" x2="1521" y2="952" stroke="black" stroke-width="1" stroke-dasharray="3,3"/>
<line x1="1532" y1="930" x2="1532" y2="952" stroke="black" stroke-width="1" stroke-dasharray="3,3"/>
<rect x="1498" y="934" width="43" height="5" fill="#000000" stroke-width="0"/>
<rect x="1498" y="944" width="2" height="5" fill="#000000" stroke-width="0"/>
<rect x="1498" y="929" width="45" height="24" fill-opacity="0" stroke="#000000" stroke-width="1"/>
<rect x="1368" y="913" width="175" height="40" fill-opacity="0" stroke="#000000" stroke-width="1"/>
</g>
<g id="operational_reasons">
<rect x="1425" y="867" width="120" height="40" fill="#e0fef0" stroke-width="0"/>
<text x="1433" y="880" font-family="Calibri" font-size="8.75" font-weight="bold">Operations-related reasons</text>
<line x1="1425" y1="883" x2="1545" y2="883" stroke="#000000" stroke-width="1"/>
<text x="1432" y="894" font-family="Calibri" font-size="8.75">low</text>
<text x="1432" y="904" font-family="Calibri" font-size="8.75">high</text>
<text x="1481" y="894" font-family="Calibri" font-size="8.75">80.7</text>
<text x="1481" y="904" font-family="Calibri" font-size="8.75">19.3</text>
<rect x="1500" y="883" width="45" height="24" fill="#b3cbc0" stroke-width="0"/>
<line x1="1511" y1="884" x2="1511" y2="906" stroke="black" stroke-width="1" stroke-dasharray="3,3"/>
<line x1="1523" y1="884" x2="1523" y2="906" stroke="black" stroke-width="1" stroke-dasharray="3,3"/>
<line x1="1534" y1="884" x2="1534" y2="906" stroke="black" stroke-width="1" stroke-dasharray="3,3"/>
<rect x="1500" y="888" width="36" height="5" fill="#000000" stroke-width="0"/>
<rect x="1500" y="898" width="9" height="5" fill="#000000" stroke-width="0"/>
<rect x="1500" y="883" width="45" height="24" fill-opacity="0" stroke="#000000" stroke-width="1"/>
<rect x="1425" y="867" width="120" height="40" fill-opacity="0" stroke="#000000" stroke-width="1"/>
</g>
<g id="labor_access_quality">
<rect x="1445" y="822" width="97" height="40" fill="#e0fef0" stroke-width="0"/>
<text x="1470" y="835" font-family="Calibri" font-size="8.75" font-weight="bold">Labor supply</text>
<line x1="1445" y1="838" x2="1542" y2="838" stroke="#000000" stroke-width="1"/>
<text x="1452" y="849" font-family="Calibri" font-size="8.75">low</text>
<text x="1452" y="859" font-family="Calibri" font-size="8.75">high</text>
<text x="1478" y="849" font-family="Calibri" font-size="8.75">77.4</text>
<text x="1478" y="859" font-family="Calibri" font-size="8.75">22.6</text>
<rect x="1497" y="838" width="45" height="24" fill="#b3cbc0" stroke-width="0"/>
<line x1="1508" y1="839" x2="1508" y2="861" stroke="black" stroke-width="1" stroke-dasharray="3,3"/>
<line x1="1520" y1="839" x2="1520" y2="861" stroke="black" stroke-width="1" stroke-dasharray="3,3"/>
<line x1="1531" y1="839" x2="1531" y2="861" stroke="black" stroke-width="1" stroke-dasharray="3,3"/>
<rect x="1497" y="843" width="35" height="5" fill="#000000" stroke-width="0"/>
<rect x="1497" y="853" width="10" height="5" fill="#000000" stroke-width="0"/>
<rect x="1497" y="838" width="45" height="24" fill-opacity="0" stroke="#000000" stroke-width="1"/>
<rect x="1445" y="822" width="97" height="40" fill-opacity="0" stroke="#000000" stroke-width="1"/>
</g>
<g id="market_drivers">
<rect x="1445" y="776" width="97" height="40" fill="#e0fef0" stroke-width="0"/>
<text x="1466" y="789" font-family="Calibri" font-size="8.75" font-weight="bold">Market drivers</text>
<line x1="1445" y1="792" x2="1542" y2="792" stroke="#000000" stroke-width="1"/>
<text x="1452" y="803" font-family="Calibri" font-size="8.75">low</text>
<text x="1452" y="813" font-family="Calibri" font-size="8.75">high</text>
<text x="1478" y="803" font-family="Calibri" font-size="8.75">70.8</text>
<text x="1478" y="813" font-family="Calibri" font-size="8.75">29.2</text>
<rect x="1497" y="792" width="45" height="24" fill="#b3cbc0" stroke-width="0"/>
<line x1="1508" y1="793" x2="1508" y2="815" stroke="black" stroke-width="1" stroke-dasharray="3,3"/>
<line x1="1520" y1="793" x2="1520" y2="815" stroke="black" stroke-width="1" stroke-dasharray="3,3"/>
<line x1="1531" y1="793" x2="1531" y2="815" stroke="black" stroke-width="1" stroke-dasharray="3,3"/>
<rect x="1497" y="797" width="32" height="5" fill="#000000" stroke-width="0"/>
<rect x="1497" y="807" width="13" height="5" fill="#000000" stroke-width="0"/>
<rect x="1497" y="792" width="45" height="24" fill-opacity="0" stroke="#000000" stroke-width="1"/>
<rect x="1445" y="776" width="97" height="40" fill-opacity="0" stroke="#000000" stroke-width="1"/>
</g>
<g id="strategic">
<rect x="1445" y="730" width="97" height="40" fill="#e0fef0" stroke-width="0"/>
<text x="1462" y="743" font-family="Calibri" font-size="8.75" font-weight="bold">Strategic reasons</text>
<line x1="1445" y1="746" x2="1542" y2="746" stroke="#000000" stroke-width="1"/>
<text x="1452" y="757" font-family="Calibri" font-size="8.75">low</text>
<text x="1452" y="767" font-family="Calibri" font-size="8.75">high</text>
<text x="1478" y="757" font-family="Calibri" font-size="8.75">76.2</text>
<text x="1478" y="767" font-family="Calibri" font-size="8.75">23.8</text>
<rect x="1497" y="746" width="45" height="24" fill="#b3cbc0" stroke-width="0"/>
<line x1="1508" y1="747" x2="1508" y2="769" stroke="black" stroke-width="1" stroke-dasharray="3,3"/>
<line x1="1520" y1="747" x2="1520" y2="769" stroke="black" stroke-width="1" stroke-dasharray="3,3"/>
<line x1="1531" y1="747" x2="1531" y2="769" stroke="black" stroke-width="1" stroke-dasharray="3,3"/>
<rect x="1497" y="751" width="34" height="5" fill="#000000" stroke-width="0"/>
<rect x="1497" y="761" width="11" height="5" fill="#000000" stroke-width="0"/>
<rect x="1497" y="746" width="45" height="24" fill-opacity="0" stroke="#000000" stroke-width="1"/>
<rect x="1445" y="730" width="97" height="40" fill-opacity="0" stroke="#000000" stroke-width="1"/>
</g>
<g id="policy_environment">
<rect x="1445" y="685" width="97" height="40" fill="#e0fef0" stroke-width="0"/>
<text x="1457" y="698" font-family="Calibri" font-size="8.75" font-weight="bold">Policy environment</text>
<line x1="1445" y1="701" x2="1542" y2="701" stroke="#000000" stroke-width="1"/>
<text x="1452" y="712" font-family="Calibri" font-size="8.75">low</text>
<text x="1452" y="722" font-family="Calibri" font-size="8.75">high</text>
<text x="1478" y="712" font-family="Calibri" font-size="8.75">67.6</text>
<text x="1478" y="722" font-family="Calibri" font-size="8.75">32.4</text>
<rect x="1497" y="701" width="45" height="24" fill="#b3cbc0" stroke-width="0"/>
<line x1="1508" y1="702" x2="1508" y2="724" stroke="black" stroke-width="1" stroke-dasharray="3,3"/>
<line x1="1520" y1="702" x2="1520" y2="724" stroke="black" stroke-width="1" stroke-dasharray="3,3"/>
<line x1="1531" y1="702" x2="1531" y2="724" stroke="black" stroke-width="1" stroke-dasharray="3,3"/>
<rect x="1497" y="706" width="30" height="5" fill="#000000" stroke-width="0"/>
<rect x="1497" y="716" width="15" height="5" fill="#000000" stroke-width="0"/>
<rect x="1497" y="701" width="45" height="24" fill-opacity="0" stroke="#000000" stroke-width="1"/>
<rect x="1445" y="685" width="97" height="40" fill-opacity="0" stroke="#000000" stroke-width="1"/>
</g>
<g id="infrastructure_logistics">
<rect x="1427" y="639" width="116" height="40" fill="#e0fef0" stroke-width="0"/>
<text x="1435" y="652" font-family="Calibri" font-size="8.75" font-weight="bold">Infrastructure and logistics</text>
<line x1="1427" y1="655" x2="1543" y2="655" stroke="#000000" stroke-width="1"/>
<text x="1434" y="666" font-family="Calibri" font-size="8.75">low</text>
<text x="1434" y="676" font-family="Calibri" font-size="8.75">high</text>
<text x="1479" y="666" font-family="Calibri" font-size="8.75">35.0</text>
<text x="1479" y="676" font-family="Calibri" font-size="8.75">65.0</text>
<rect x="1498" y="655" width="45" height="24" fill="#b3cbc0" stroke-width="0"/>
<line x1="1509" y1="656" x2="1509" y2="678" stroke="black" stroke-width="1" stroke-dasharray="3,3"/>
<line x1="1521" y1="656" x2="1521" y2="678" stroke="black" stroke-width="1" stroke-dasharray="3,3"/>
<line x1="1532" y1="656" x2="1532" y2="678" stroke="black" stroke-width="1" stroke-dasharray="3,3"/>
<rect x="1498" y="660" width="16" height="5" fill="#000000" stroke-width="0"/>
<rect x="1498" y="670" width="29" height="5" fill="#000000" stroke-width="0"/>
<rect x="1498" y="655" width="45" height="24" fill-opacity="0" stroke="#000000" stroke-width="1"/>
<rect x="1427" y="639" width="116" height="40" fill-opacity="0" stroke="#000000" stroke-width="1"/>
</g>
<g id="market_distance">
<rect x="1445" y="594" width="97" height="40" fill="#e0fef0" stroke-width="0"/>
<text x="1461" y="607" font-family="Calibri" font-size="8.75" font-weight="bold">Market proximity</text>
<line x1="1445" y1="610" x2="1542" y2="610" stroke="#000000" stroke-width="1"/>
<text x="1452" y="621" font-family="Calibri" font-size="8.75">low</text>
<text x="1452" y="631" font-family="Calibri" font-size="8.75">high</text>
<text x="1478" y="621" font-family="Calibri" font-size="8.75">31.1</text>
<text x="1478" y="631" font-family="Calibri" font-size="8.75">68.9</text>
<rect x="1497" y="610" width="45" height="24" fill="#b3cbc0" stroke-width="0"/>
<line x1="1508" y1="611" x2="1508" y2="633" stroke="black" stroke-width="1" stroke-dasharray="3,3"/>
<line x1="1520" y1="611" x2="1520" y2="633" stroke="black" stroke-width="1" stroke-dasharray="3,3"/>
<line x1="1531" y1="611" x2="1531" y2="633" stroke="black" stroke-width="1" stroke-dasharray="3,3"/>
<rect x="1497" y="615" width="14" height="5" fill="#000000" stroke-width="0"/>
<rect x="1497" y="625" width="31" height="5" fill="#000000" stroke-width="0"/>
<rect x="1497" y="610" width="45" height="24" fill-opacity="0" stroke="#000000" stroke-width="1"/>
<rect x="1445" y="594" width="97" height="40" fill-opacity="0" stroke="#000000" stroke-width="1"/>
</g>
<g id="crop_type">
<rect x="1605" y="656" width="161" height="50" fill="#bbeee7" stroke-width="0"/>
<text x="1649" y="669" font-family="Calibri" font-size="8.75" font-weight="bold">Types of production</text>
<line x1="1605" y1="672" x2="1766" y2="672" stroke="#000000" stroke-width="1"/>
<text x="1612" y="683" font-family="Calibri" font-size="8.75">high value food crops</text>
<text x="1612" y="693" font-family="Calibri" font-size="8.75">other agriculture</text>
<text x="1612" y="703" font-family="Calibri" font-size="8.75">forestry</text>
<text x="1702" y="683" font-family="Calibri" font-size="8.75">10.6</text>
<text x="1702" y="693" font-family="Calibri" font-size="8.75">27.3</text>
<text x="1702" y="703" font-family="Calibri" font-size="8.75">62.1</text>
<rect x="1721" y="672" width="45" height="34" fill="#96beb9" stroke-width="0"/>
<line x1="1732" y1="673" x2="1732" y2="705" stroke="black" stroke-width="1" stroke-dasharray="3,3"/>
<line x1="1744" y1="673" x2="1744" y2="705" stroke="black" stroke-width="1" stroke-dasharray="3,3"/>
<line x1="1755" y1="673" x2="1755" y2="705" stroke="black" stroke-width="1" stroke-dasharray="3,3"/>
<rect x="1721" y="677" width="5" height="5" fill="#000000" stroke-width="0"/>
<rect x="1721" y="687" width="12" height="5" fill="#000000" stroke-width="0"/>
<rect x="1721" y="697" width="28" height="5" fill="#000000" stroke-width="0"/>
<rect x="1721" y="672" width="45" height="34" fill-opacity="0" stroke="#000000" stroke-width="1"/>
<rect x="1605" y="656" width="161" height="50" fill-opacity="0" stroke="#000000" stroke-width="1"/>
</g>
<g id="agroecology2">
<rect x="1445" y="548" width="97" height="40" fill="#e0fef0" stroke-width="0"/>
<text x="1471" y="561" font-family="Calibri" font-size="8.75" font-weight="bold">Agroecology</text>
<line x1="1445" y1="564" x2="1542" y2="564" stroke="#000000" stroke-width="1"/>
<text x="1452" y="575" font-family="Calibri" font-size="8.75">low</text>
<text x="1452" y="585" font-family="Calibri" font-size="8.75">high</text>
<text x="1478" y="575" font-family="Calibri" font-size="8.75">50.0</text>
<text x="1478" y="585" font-family="Calibri" font-size="8.75">50.0</text>
<rect x="1497" y="564" width="45" height="24" fill="#b3cbc0" stroke-width="0"/>
<line x1="1508" y1="565" x2="1508" y2="587" stroke="black" stroke-width="1" stroke-dasharray="3,3"/>
<line x1="1520" y1="565" x2="1520" y2="587" stroke="black" stroke-width="1" stroke-dasharray="3,3"/>
<line x1="1531" y1="565" x2="1531" y2="587" stroke="black" stroke-width="1" stroke-dasharray="3,3"/>
<rect x="1497" y="569" width="23" height="5" fill="#000000" stroke-width="0"/>
<rect x="1497" y="579" width="22" height="5" fill="#000000" stroke-width="0"/>
<rect x="1497" y="564" width="45" height="24" fill-opacity="0" stroke="#000000" stroke-width="1"/>
<rect x="1445" y="548" width="97" height="40" fill-opacity="0" stroke="#000000" stroke-width="1"/>
</g>
<g id="land_avail_access">
<rect x="1445" y="503" width="97" height="40" fill="#e0fef0" stroke-width="0"/>
<text x="1462" y="516" font-family="Calibri" font-size="8.75" font-weight="bold">Land accessibility</text>
<line x1="1445" y1="519" x2="1542" y2="519" stroke="#000000" stroke-width="1"/>
<text x="1452" y="530" font-family="Calibri" font-size="8.75">low</text>
<text x="1452" y="540" font-family="Calibri" font-size="8.75">high</text>
<text x="1478" y="530" font-family="Calibri" font-size="8.75">34.3</text>
<text x="1478" y="540" font-family="Calibri" font-size="8.75">65.7</text>
<rect x="1497" y="519" width="45" height="24" fill="#b3cbc0" stroke-width="0"/>
<line x1="1508" y1="520" x2="1508" y2="542" stroke="black" stroke-width="1" stroke-dasharray="3,3"/>
<line x1="1520" y1="520" x2="1520" y2="542" stroke="black" stroke-width="1" stroke-dasharray="3,3"/>
<line x1="1531" y1="520" x2="1531" y2="542" stroke="black" stroke-width="1" stroke-dasharray="3,3"/>
<rect x="1497" y="524" width="15" height="5" fill="#000000" stroke-width="0"/>
<rect x="1497" y="534" width="30" height="5" fill="#000000" stroke-width="0"/>
<rect x="1497" y="519" width="45" height="24" fill-opacity="0" stroke="#000000" stroke-width="1"/>
<rect x="1445" y="503" width="97" height="40" fill-opacity="0" stroke="#000000" stroke-width="1"/>
</g>
<g id="skillset_exp_estab">
<rect x="1598" y="504" width="115" height="50" fill="#b4f5da" stroke-width="0"/>
<text x="1616" y="517" font-family="Calibri" font-size="8.75" font-weight="bold">Investor track record</text>
<line x1="1598" y1="520" x2="1713" y2="520" stroke="#000000" stroke-width="1"/>
<text x="1605" y="531" font-family="Calibri" font-size="8.75">none</text>
<text x="1605" y="541" font-family="Calibri" font-size="8.75">limited</text>
<text x="1605" y="551" font-family="Calibri" font-size="8.75">extensive</text>
<text x="1649" y="531" font-family="Calibri" font-size="8.75">11.8</text>
<text x="1649" y="541" font-family="Calibri" font-size="8.75">26.2</text>
<text x="1649" y="551" font-family="Calibri" font-size="8.75">62.0</text>
<rect x="1668" y="520" width="45" height="34" fill="#90c4ae" stroke-width="0"/>
<line x1="1679" y1="521" x2="1679" y2="553" stroke="black" stroke-width="1" stroke-dasharray="3,3"/>
<line x1="1691" y1="521" x2="1691" y2="553" stroke="black" stroke-width="1" stroke-dasharray="3,3"/>
<line x1="1702" y1="521" x2="1702" y2="553" stroke="black" stroke-width="1" stroke-dasharray="3,3"/>
<rect x="1668" y="525" width="5" height="5" fill="#000000" stroke-width="0"/>
<rect x="1668" y="535" width="12" height="5" fill="#000000" stroke-width="0"/>
<rect x="1668" y="545" width="28" height="5" fill="#000000" stroke-width="0"/>
<rect x="1668" y="520" width="45" height="34" fill-opacity="0" stroke="#000000" stroke-width="1"/>
<rect x="1598" y="504" width="115" height="50" fill-opacity="0" stroke="#000000" stroke-width="1"/>
</g>

</svg>

