<svg xmlns="http://www.w3.org/2000/svg" xmlns:xlink="http://www.w3.org/1999/xlink" xmlns:lucid="lucid" width="1291.28" height="590.13"><g transform="translate(-119 -189.14984199591458)" lucid:page-tab-id="0_0"><path d="M0 0h1483.6v2098.23H0z" fill="#fff"/><g filter="url(#a)"><path d="M307.43 600.24c23.1 0 41.85 17.9 41.85 40s-18.74 40-41.85 40H181.86c-23.12 0-41.86-17.9-41.86-40s18.74-40 41.86-40z" stroke="#d3d3d3" fill="#fdfdfd"/><use xlink:href="#b" transform="matrix(1,0,0,1,145,605.2449085147616) translate(44.705741024806684 25.506998675219638)"/><use xlink:href="#c" transform="matrix(1,0,0,1,145,605.2449085147616) translate(14.362092223306812 52.42374668804909)"/><use xlink:href="#d" transform="matrix(1,0,0,1,145,605.2449085147616) translate(112.68299121461443 52.42374668804909)"/></g><g filter="url(#a)"><path d="M470.8 210.15c23.12 0 41.86 17.9 41.86 40s-18.74 40-41.86 40H345.23c-23.12 0-41.86-17.9-41.86-40s18.74-40 41.86-40z" stroke="#d3d3d3" fill="#fdfdfd"/><use xlink:href="#e" transform="matrix(1,0,0,1,308.3733477259053,215.14984199591458) translate(59.659489920823056 26.506998675219638)"/><use xlink:href="#f" transform="matrix(1,0,0,1,308.3733477259053,215.14984199591458) translate(32.7427419079936 53.42374668804909)"/><use xlink:href="#g" transform="matrix(1,0,0,1,308.3733477259053,215.14984199591458) translate(94.11541966872744 53.42374668804909)"/></g><g filter="url(#a)"><path d="M633.62 600.24c23.12 0 41.86 17.9 41.86 40s-18.74 40-41.86 40H508.05c-23.12 0-41.86-17.9-41.86-40s18.73-40 41.85-40z" stroke="#d3d3d3" fill="#fdfdfd"/><use xlink:href="#h" transform="matrix(1,0,0,1,471.19495089255076,605.2449085147616) translate(44.705741024806684 25.506998675219638)"/><use xlink:href="#i" transform="matrix(1,0,0,1,471.19495089255076,605.2449085147616) translate(57.16719843815366 52.42374668804909)"/></g><g filter="url(#a)"><path d="M470.8 480c23.12 0 41.86 17.9 41.86 40s-18.74 40-41.86 40H345.23c-23.12 0-41.86-17.9-41.86-40s18.74-40 41.86-40z" stroke="#d3d3d3" fill="#fdfdfd"/><use xlink:href="#j" transform="matrix(1,0,0,1,308.3733475005812,485) translate(46.47804040967476 38.631998675219634)"/></g><path d="M417.48 291.98l151.15 289.5" stroke="#5e5e5e" stroke-width="3" fill="none"/><path d="M418.83 291.32l-2.66 1.4-1.08-2.07h3.38z" fill="#5e5e5e"/><path d="M575.93 595.44l-10.7-10.5 8.2-4.3z" stroke="#5e5e5e" stroke-width="3" fill="#fff"/><path d="M308.3 542.5l-44.8 42.97" stroke="#5e5e5e" stroke-width="3" fill="none"/><path d="M310.1 542.65l.1.1-.9.87-2.07-2.17 1.34-1.28z" fill="#5e5e5e"/><path d="M252.13 596.38l7.08-13.22 6.43 6.7z" stroke="#5e5e5e" stroke-width="3" fill="#fff"/><path d="M408 292.15v166.73" stroke="#5e5e5e" stroke-width="3" fill="none"/><path d="M409.5 292.2h-3v-1.55h3z" fill="#5e5e5e"/><path d="M408 474.65l-4.62-14.27h9.27z" stroke="#5e5e5e" stroke-width="3" fill="#fff"/><path d="M550.08 583.95l-39.4-46.92" stroke="#5e5e5e" stroke-width="3" fill="none"/><path d="M560.22 596.03l-12.73-7.95 7.1-5.96z" stroke="#5e5e5e" stroke-width="3" fill="#fff"/><path d="M511.84 536.1l-2.3 1.92-.52-.62 1.36-3.05z" fill="#5e5e5e"/><path d="M351.28 640.24h93.8" stroke="#5e5e5e" stroke-width="3" fill="none"/><path d="M351.32 641.74h-1.63l.08-1.48v-.73l-.06-.8h1.6z" fill="#5e5e5e"/><path d="M460.84 640.24l-14.27 4.64v-9.27z" stroke="#5e5e5e" stroke-width="3" fill="#fff"/><path d="M398.28 291.98L249.93 581.4" stroke="#5e5e5e" stroke-width="3" fill="none"/><path d="M399.6 292.7l-2.67-1.37.35-.68h3.37z" fill="#5e5e5e"/><path d="M242.74 595.43l2.38-14.8 8.25 4.2z" stroke="#5e5e5e" stroke-width="3" fill="#fff"/><g filter="url(#k)"><path d="M970.96 508.4c34.05 0 61.64 17.92 61.64 40 0 22.1-27.6 40-61.64 40H786.03c-34.04 0-61.64-17.9-61.64-40 0-22.08 27.6-40 61.63-40z" stroke="#d3d3d3" fill="#fdfdfd"/><use xlink:href="#l" transform="matrix(1,0,0,1,729.3882595888949,513.4116345238928) translate(40.64916949441421 39.631998675219634)"/><use xlink:href="#m" transform="matrix(1,0,0,1,729.3882595888949,513.4116345238928) translate(111.6171694634252 39.631998675219634)"/><use xlink:href="#n" transform="matrix(1,0,0,1,729.3882595888949,513.4116345238928) translate(186.26129936937355 39.631998675219634)"/></g><g filter="url(#a)"><path d="M1225.6 556.82c23.12 0 41.86 17.9 41.86 40s-18.74 40-41.86 40h-125.57c-23.1 0-41.85-17.9-41.85-40s18.74-40 41.85-40z" stroke="#d3d3d3" fill="#fdfdfd"/><use xlink:href="#o" transform="matrix(1,0,0,1,1063.1783802901427,561.8232690477855) translate(23.583570709183583 25.506998675219638)"/><use xlink:href="#p" transform="matrix(1,0,0,1,1063.1783802901427,561.8232690477855) translate(107.01302809154156 25.506998675219638)"/><use xlink:href="#n" transform="matrix(1,0,0,1,1063.1783802901427,561.8232690477855) translate(63.46023443189388 52.42374668804909)"/></g><g filter="url(#k)"><path d="M967.97 600.24c34.04 0 61.64 17.9 61.64 40s-27.6 40-61.63 40H783.04c-34.04 0-61.64-17.9-61.64-40s27.6-40 61.64-40z" stroke="#d3d3d3" fill="#fdfdfd"/><use xlink:href="#q" transform="matrix(1,0,0,1,726.3975098096918,605.2449085147616) translate(46.25682533042034 38.631998675219634)"/><use xlink:href="#m" transform="matrix(1,0,0,1,726.3975098096918,605.2449085147616) translate(106.00951362741907 38.631998675219634)"/><use xlink:href="#n" transform="matrix(1,0,0,1,726.3975098096918,605.2449085147616) translate(180.65364353336741 38.631998675219634)"/></g><path d="M1021.58 617.64l18.24-10.52" stroke="#5e5e5e" stroke-width="3" fill="none"/><path d="M1022.36 618.92l-1.02.6-.5-.58-1.68-1.64 1.7-.98z" fill="#5e5e5e"/><path d="M1053.47 599.25l-10.04 11.14-4.63-8.04z" stroke="#5e5e5e" stroke-width="3" fill="#fff"/><path d="M1024.34 571.24l16 9.18" stroke="#5e5e5e" stroke-width="3" fill="none"/><path d="M1025.12 569.96l-1.5 2.6-1.7-.98.32-.27 1.88-1.92z" fill="#5e5e5e"/><path d="M1054 588.26l-14.67-3.08 4.62-8.04z" stroke="#5e5e5e" stroke-width="3" fill="#fff"/><g filter="url(#k)"><path d="M966.47 210.15c34.05 0 61.65 17.9 61.65 40s-27.6 40-61.65 40H781.55c-34.05 0-61.65-17.9-61.65-40s27.6-40 61.65-40z" stroke="#d3d3d3" fill="#fdfdfd"/><use xlink:href="#r" transform="matrix(1,0,0,1,724.9021349200899,215.14984199591458) translate(114.89176033096267 18.944498675219638)"/><use xlink:href="#s" transform="matrix(1,0,0,1,724.9021349200899,215.14984199591458) translate(4.732476796975456 46.86124668804909)"/><use xlink:href="#t" transform="matrix(1,0,0,1,724.9021349200899,215.14984199591458) translate(181.24902105703526 46.86124668804909)"/></g><g filter="url(#a)"><path d="M1225.6 300c23.12 0 41.86 17.9 41.86 40s-18.74 40-41.86 40h-125.57c-23.1 0-41.85-17.9-41.85-40s18.74-40 41.85-40z" stroke="#d3d3d3" fill="#fdfdfd"/><use xlink:href="#u" transform="matrix(1,0,0,1,1063.1783802901427,305) translate(64.57830730256124 39.631998675219634)"/></g><g filter="url(#k)"><path d="M967.97 300c34.04 0 61.64 17.9 61.64 40s-27.6 40-61.63 40H783.04c-34.04 0-61.64-17.9-61.64-40s27.6-40 61.64-40z" stroke="#d3d3d3" fill="#fdfdfd"/><use xlink:href="#v" transform="matrix(1,0,0,1,726.3975098096918,305) translate(120.9978744635027 18.944498675219638)"/><use xlink:href="#s" transform="matrix(1,0,0,1,726.3975098096918,305) translate(4.732476796975456 46.86124668804909)"/><use xlink:href="#t" transform="matrix(1,0,0,1,726.3975098096918,305) translate(181.24902105703526 46.86124668804909)"/></g><path d="M1009.87 399.18l34.55-34.55" stroke="#5e5e5e" stroke-width="3" fill="none"/><path d="M1010.96 400.2l-.82.83-.2-.13-2.47-1.44 1.37-1.37z" fill="#5e5e5e"/><path d="M1055.57 353.48l-6.8 13.37-6.57-6.56z" stroke="#5e5e5e" stroke-width="3" fill="#fff"/><path d="M1031.6 340h5.46" stroke="#5e5e5e" stroke-width="3" fill="none"/><path d="M1031.65 341.5h-1.6l.06-1.5v-.8l-.05-.7h1.6z" fill="#5e5e5e"/><path d="M1052.82 340l-14.26 4.64v-9.28z" stroke="#5e5e5e" stroke-width="3" fill="#fff"/><path d="M1010.73 280.28l34.06 33.9" stroke="#5e5e5e" stroke-width="3" fill="none"/><path d="M1011.8 279.25l-2.1 2.13-1.34-1.34 2.6-1.63z" fill="#5e5e5e"/><path d="M1055.97 325.3l-13.38-6.77 6.53-6.57z" stroke="#5e5e5e" stroke-width="3" fill="#fff"/><g filter="url(#a)"><path d="M1347.43 428.4c23.1 0 41.85 17.92 41.85 40 0 22.1-18.74 40-41.85 40h-125.57c-23.12 0-41.86-17.9-41.86-40 0-22.08 18.74-40 41.86-40z" stroke="#d3d3d3" fill="#fdfdfd"/><use xlink:href="#w" transform="matrix(1,0,0,1,1185,433.41163452389276) translate(59.659489920823056 25.506998675219638)"/><use xlink:href="#x" transform="matrix(1,0,0,1,1185,433.41163452389276) translate(32.7427419079936 53.42374668804909)"/><use xlink:href="#g" transform="matrix(1,0,0,1,1185,433.41163452389276) translate(94.11541966872744 53.42374668804909)"/></g><path d="M1228.65 555.48l40.14-33.38" stroke="#5e5e5e" stroke-width="3" fill="none"/><path d="M1229.6 556.56l-3.98-.24h-.34l2.44-2.02z" fill="#5e5e5e"/><path d="M1280.9 512.02l-8 12.68-5.92-7.13z" stroke="#5e5e5e" stroke-width="3" fill="#fff"/><path d="M1227.2 381.44l41.4 33.5" stroke="#5e5e5e" stroke-width="3" fill="none"/><path d="M1226.28 382.63l-2.63-2.13h2.78l1.7-.14z" fill="#5e5e5e"/><path d="M1280.87 424.86l-14-5.37 5.82-7.22z" stroke="#5e5e5e" stroke-width="3" fill="#fff"/><path d="M382.96 706c0-3.3 2.7-6 6-6h38.1c3.32 0 6 2.7 6 6v47.28c0 3.3-2.68 6-6 6h-38.1c-3.3 0-6-2.7-6-6z" fill="none"/><use xlink:href="#y" transform="matrix(1,0,0,1,382.96075053477864,700) translate(18.576968103696128 34.98458296533879)"/><path d="M1032.6 706c0-3.3 2.7-6 6-6h38.1c3.33 0 6 2.7 6 6v47.28c0 3.3-2.67 6-6 6h-38.1c-3.3 0-6-2.7-6-6z" fill="none"/><use xlink:href="#z" transform="matrix(1,0,0,1,1032.6039612196137,700) translate(18.576968103696128 34.98458296533879)"/><g filter="url(#k)"><path d="M966.47 389.85c34.05 0 61.65 17.9 61.65 40s-27.6 40-61.65 40H781.55c-34.05 0-61.65-17.9-61.65-40s27.6-40 61.65-40z" stroke="#d3d3d3" fill="#fdfdfd"/><use xlink:href="#A" transform="matrix(1,0,0,1,724.9021349200899,394.8501580040854) translate(46.22567168688698 38.631998675219634)"/><use xlink:href="#t" transform="matrix(1,0,0,1,724.9021349200899,394.8501580040854) translate(140.74582616712377 38.631998675219634)"/></g><defs><path fill="#5e5e5e" d="M33 0v-248h34V0H33" id="B"/><path fill="#5e5e5e" d="M117-194c89-4 53 116 60 194h-32v-121c0-31-8-49-39-48C34-167 62-67 57 0H25l-1-190h30c1 10-1 24 2 32 11-22 29-35 61-36" id="C"/><path fill="#5e5e5e" d="M108 0H70L1-190h34L89-25l56-165h34" id="D"/><path fill="#5e5e5e" d="M100-194c63 0 86 42 84 106H49c0 40 14 67 53 68 26 1 43-12 49-29l28 8c-11 28-37 45-77 45C44 4 14-33 15-96c1-61 26-98 85-98zm52 81c6-60-76-77-97-28-3 7-6 17-6 28h103" id="E"/><path fill="#5e5e5e" d="M135-143c-3-34-86-38-87 0 15 53 115 12 119 90S17 21 10-45l28-5c4 36 97 45 98 0-10-56-113-15-118-90-4-57 82-63 122-42 12 7 21 19 24 35" id="F"/><path fill="#5e5e5e" d="M59-47c-2 24 18 29 38 22v24C64 9 27 4 27-40v-127H5v-23h24l9-43h21v43h35v23H59v120" id="G"/><path fill="#5e5e5e" d="M210-169c-67 3-38 105-44 169h-31v-121c0-29-5-50-35-48C34-165 62-65 56 0H25l-1-190h30c1 10-1 24 2 32 10-44 99-50 107 0 11-21 27-35 58-36 85-2 47 119 55 194h-31v-121c0-29-5-49-35-48" id="H"/><g id="b"><use transform="matrix(0.06230728706673485,0,0,0.06230728706673485,0,0)" xlink:href="#B"/><use transform="matrix(0.06230728706673485,0,0,0.06230728706673485,6.230728706673485,0)" xlink:href="#C"/><use transform="matrix(0.06230728706673485,0,0,0.06230728706673485,18.692186120020455,0)" xlink:href="#D"/><use transform="matrix(0.06230728706673485,0,0,0.06230728706673485,29.90749779203273,0)" xlink:href="#E"/><use transform="matrix(0.06230728706673485,0,0,0.06230728706673485,42.3689552053797,0)" xlink:href="#F"/><use transform="matrix(0.06230728706673485,0,0,0.06230728706673485,53.58426687739197,0)" xlink:href="#G"/><use transform="matrix(0.06230728706673485,0,0,0.06230728706673485,59.81499558406546,0)" xlink:href="#H"/><use transform="matrix(0.06230728706673485,0,0,0.06230728706673485,78.44487441701918,0)" xlink:href="#E"/><use transform="matrix(0.06230728706673485,0,0,0.06230728706673485,90.90633183036616,0)" xlink:href="#C"/><use transform="matrix(0.06230728706673485,0,0,0.06230728706673485,103.36778924371313,0)" xlink:href="#G"/></g><path fill="#5e5e5e" d="M185-189c-5-48-123-54-124 2 14 75 158 14 163 119 3 78-121 87-175 55-17-10-28-26-33-46l33-7c5 56 141 63 141-1 0-78-155-14-162-118-5-82 145-84 179-34 5 7 8 16 11 25" id="I"/><path fill="#5e5e5e" d="M24 0v-261h32V0H24" id="J"/><path fill="#5e5e5e" d="M96-169c-40 0-48 33-48 73s9 75 48 75c24 0 41-14 43-38l32 2c-6 37-31 61-74 61-59 0-76-41-82-99-10-93 101-131 147-64 4 7 5 14 7 22l-32 3c-4-21-16-35-41-35" id="K"/><path fill="#5e5e5e" d="M24-231v-30h32v30H24zM24 0v-190h32V0H24" id="L"/><path fill="#5e5e5e" d="M100-194c62-1 85 37 85 99 1 63-27 99-86 99S16-35 15-95c0-66 28-99 85-99zM99-20c44 1 53-31 53-75 0-43-8-75-51-75s-53 32-53 75 10 74 51 75" id="M"/><g id="c"><use transform="matrix(0.06230728706673485,0,0,0.06230728706673485,0,0)" xlink:href="#I"/><use transform="matrix(0.06230728706673485,0,0,0.06230728706673485,14.953748896016364,0)" xlink:href="#E"/><use transform="matrix(0.06230728706673485,0,0,0.06230728706673485,27.415206309363334,0)" xlink:href="#J"/><use transform="matrix(0.06230728706673485,0,0,0.06230728706673485,32.337481987635385,0)" xlink:href="#E"/><use transform="matrix(0.06230728706673485,0,0,0.06230728706673485,44.798939400982356,0)" xlink:href="#K"/><use transform="matrix(0.06230728706673485,0,0,0.06230728706673485,56.014251072994625,0)" xlink:href="#G"/><use transform="matrix(0.06230728706673485,0,0,0.06230728706673485,62.244979779668114,0)" xlink:href="#L"/><use transform="matrix(0.06230728706673485,0,0,0.06230728706673485,67.16725545794017,0)" xlink:href="#M"/><use transform="matrix(0.06230728706673485,0,0,0.06230728706673485,79.62871287128715,0)" xlink:href="#C"/></g><path fill="#5e5e5e" d="M212-179c-10-28-35-45-73-45-59 0-87 40-87 99 0 60 29 101 89 101 43 0 62-24 78-52l27 14C228-24 195 4 139 4 59 4 22-46 18-125c-6-104 99-153 187-111 19 9 31 26 39 46" id="N"/><path fill="#5e5e5e" d="M114-163C36-179 61-72 57 0H25l-1-190h30c1 12-1 29 2 39 6-27 23-49 58-41v29" id="O"/><path fill="#5e5e5e" d="M141-36C126-15 110 5 73 4 37 3 15-17 15-53c-1-64 63-63 125-63 3-35-9-54-41-54-24 1-41 7-42 31l-33-3c5-37 33-52 76-52 45 0 72 20 72 64v82c-1 20 7 32 28 27v20c-31 9-61-2-59-35zM48-53c0 20 12 33 32 33 41-3 63-29 60-74-43 2-92-5-92 41" id="P"/><g id="d"><use transform="matrix(0.06230728706673485,0,0,0.06230728706673485,0,0)" xlink:href="#N"/><use transform="matrix(0.06230728706673485,0,0,0.06230728706673485,16.137587350284328,0)" xlink:href="#O"/><use transform="matrix(0.06230728706673485,0,0,0.06230728706673485,23.552154511225773,0)" xlink:href="#L"/><use transform="matrix(0.06230728706673485,0,0,0.06230728706673485,28.474430189497824,0)" xlink:href="#G"/><use transform="matrix(0.06230728706673485,0,0,0.06230728706673485,34.70515889617131,0)" xlink:href="#E"/><use transform="matrix(0.06230728706673485,0,0,0.06230728706673485,47.16661630951828,0)" xlink:href="#O"/><use transform="matrix(0.06230728706673485,0,0,0.06230728706673485,54.58118347045973,0)" xlink:href="#L"/><use transform="matrix(0.06230728706673485,0,0,0.06230728706673485,59.50345914873178,0)" xlink:href="#P"/></g><filter id="a" filterUnits="objectBoundingBox" x="-.05" y="-.05" width="1.1" height="1.25"><feOffset result="offOut" in="SourceAlpha" dy="6"/><feGaussianBlur result="blurOut" in="offOut" stdDeviation="5"/><feColorMatrix result="colorOut" in="blurOut" values="0 0 0 0 0 0 0 0 0 0 0 0 0 0 0 0 0 0 0.5019607843137255 0"/><feBlend in="SourceGraphic" in2="colorOut"/></filter><g id="e"><use transform="matrix(0.06230728706673485,0,0,0.06230728706673485,0,0)" xlink:href="#B"/><use transform="matrix(0.06230728706673485,0,0,0.06230728706673485,6.230728706673485,0)" xlink:href="#C"/><use transform="matrix(0.06230728706673485,0,0,0.06230728706673485,18.692186120020455,0)" xlink:href="#D"/><use transform="matrix(0.06230728706673485,0,0,0.06230728706673485,29.90749779203273,0)" xlink:href="#E"/><use transform="matrix(0.06230728706673485,0,0,0.06230728706673485,42.3689552053797,0)" xlink:href="#F"/><use transform="matrix(0.06230728706673485,0,0,0.06230728706673485,53.58426687739197,0)" xlink:href="#G"/><use transform="matrix(0.06230728706673485,0,0,0.06230728706673485,59.81499558406546,0)" xlink:href="#M"/><use transform="matrix(0.06230728706673485,0,0,0.06230728706673485,72.27645299741243,0)" xlink:href="#O"/></g><path fill="#5e5e5e" d="M127-220V0H93v-220H8v-28h204v28h-85" id="Q"/><path fill="#5e5e5e" d="M143 0L79-87 56-68V0H24v-261h32v163l83-92h37l-77 82L181 0h-38" id="R"/><g id="f"><use transform="matrix(0.06230728706673485,0,0,0.06230728706673485,0,0)" xlink:href="#Q"/><use transform="matrix(0.06230728706673485,0,0,0.06230728706673485,12.835301135747379,0)" xlink:href="#O"/><use transform="matrix(0.06230728706673485,0,0,0.06230728706673485,20.249868296688824,0)" xlink:href="#P"/><use transform="matrix(0.06230728706673485,0,0,0.06230728706673485,32.711325710035794,0)" xlink:href="#K"/><use transform="matrix(0.06230728706673485,0,0,0.06230728706673485,43.92663738204807,0)" xlink:href="#R"/></g><path fill="#5e5e5e" d="M233-177c-1 41-23 64-60 70L243 0h-38l-65-103H63V0H30v-248c88 3 205-21 203 71zM63-129c60-2 137 13 137-47 0-61-80-42-137-45v92" id="S"/><path fill="#5e5e5e" d="M85-194c31 0 48 13 60 33l-1-100h32l1 261h-30c-2-10 0-23-3-31C134-8 116 4 85 4 32 4 16-35 15-94c0-66 23-100 70-100zm9 24c-40 0-46 34-46 75 0 40 6 74 45 74 42 0 51-32 51-76 0-42-9-74-50-73" id="T"/><g id="g"><use transform="matrix(0.06230728706673485,0,0,0.06230728706673485,0,0)" xlink:href="#S"/><use transform="matrix(0.06230728706673485,0,0,0.06230728706673485,16.137587350284328,0)" xlink:href="#E"/><use transform="matrix(0.06230728706673485,0,0,0.06230728706673485,28.599044763631298,0)" xlink:href="#K"/><use transform="matrix(0.06230728706673485,0,0,0.06230728706673485,39.814356435643575,0)" xlink:href="#M"/><use transform="matrix(0.06230728706673485,0,0,0.06230728706673485,52.275813848990545,0)" xlink:href="#O"/><use transform="matrix(0.06230728706673485,0,0,0.06230728706673485,59.69038100993199,0)" xlink:href="#T"/></g><g id="h"><use transform="matrix(0.06230728706673485,0,0,0.06230728706673485,0,0)" xlink:href="#B"/><use transform="matrix(0.06230728706673485,0,0,0.06230728706673485,6.230728706673485,0)" xlink:href="#C"/><use transform="matrix(0.06230728706673485,0,0,0.06230728706673485,18.692186120020455,0)" xlink:href="#D"/><use transform="matrix(0.06230728706673485,0,0,0.06230728706673485,29.90749779203273,0)" xlink:href="#E"/><use transform="matrix(0.06230728706673485,0,0,0.06230728706673485,42.3689552053797,0)" xlink:href="#F"/><use transform="matrix(0.06230728706673485,0,0,0.06230728706673485,53.58426687739197,0)" xlink:href="#G"/><use transform="matrix(0.06230728706673485,0,0,0.06230728706673485,59.81499558406546,0)" xlink:href="#H"/><use transform="matrix(0.06230728706673485,0,0,0.06230728706673485,78.44487441701918,0)" xlink:href="#E"/><use transform="matrix(0.06230728706673485,0,0,0.06230728706673485,90.90633183036616,0)" xlink:href="#C"/><use transform="matrix(0.06230728706673485,0,0,0.06230728706673485,103.36778924371313,0)" xlink:href="#G"/></g><path fill="#5e5e5e" d="M30 0v-248h33v221h125V0H30" id="U"/><g id="i"><use transform="matrix(0.06230728706673485,0,0,0.06230728706673485,0,0)" xlink:href="#U"/><use transform="matrix(0.06230728706673485,0,0,0.06230728706673485,12.46145741334697,0)" xlink:href="#M"/><use transform="matrix(0.06230728706673485,0,0,0.06230728706673485,24.92291482669394,0)" xlink:href="#K"/><use transform="matrix(0.06230728706673485,0,0,0.06230728706673485,36.13822649870622,0)" xlink:href="#P"/><use transform="matrix(0.06230728706673485,0,0,0.06230728706673485,48.59968391205319,0)" xlink:href="#G"/><use transform="matrix(0.06230728706673485,0,0,0.06230728706673485,54.83041261872667,0)" xlink:href="#L"/><use transform="matrix(0.06230728706673485,0,0,0.06230728706673485,59.75268829699872,0)" xlink:href="#M"/><use transform="matrix(0.06230728706673485,0,0,0.06230728706673485,72.21414571034569,0)" xlink:href="#C"/></g><path fill="#5e5e5e" d="M30-248c87 1 191-15 191 75 0 78-77 80-158 76V0H30v-248zm33 125c57 0 124 11 124-50 0-59-68-47-124-48v98" id="V"/><path fill="#5e5e5e" d="M84 4C-5 8 30-112 23-190h32v120c0 31 7 50 39 49 72-2 45-101 50-169h31l1 190h-30c-1-10 1-25-2-33-11 22-28 36-60 37" id="W"/><g id="j"><use transform="matrix(0.06230728706673485,0,0,0.06230728706673485,0,0)" xlink:href="#V"/><use transform="matrix(0.06230728706673485,0,0,0.06230728706673485,14.953748896016364,0)" xlink:href="#O"/><use transform="matrix(0.06230728706673485,0,0,0.06230728706673485,22.36831605695781,0)" xlink:href="#M"/><use transform="matrix(0.06230728706673485,0,0,0.06230728706673485,34.82977347030478,0)" xlink:href="#T"/><use transform="matrix(0.06230728706673485,0,0,0.06230728706673485,47.29123088365175,0)" xlink:href="#W"/><use transform="matrix(0.06230728706673485,0,0,0.06230728706673485,59.75268829699872,0)" xlink:href="#K"/><use transform="matrix(0.06230728706673485,0,0,0.06230728706673485,70.96799996901099,0)" xlink:href="#G"/><use transform="matrix(0.06230728706673485,0,0,0.06230728706673485,77.19872867568448,0)" xlink:href="#L"/><use transform="matrix(0.06230728706673485,0,0,0.06230728706673485,82.12100435395654,0)" xlink:href="#M"/><use transform="matrix(0.06230728706673485,0,0,0.06230728706673485,94.5824617673035,0)" xlink:href="#C"/></g><path fill="#5e5e5e" d="M30 0v-248h187v28H63v79h144v27H63v87h162V0H30" id="X"/><path fill="#5e5e5e" d="M141 0L90-78 38 0H4l68-98-65-92h35l48 74 47-74h35l-64 92 68 98h-35" id="Y"/><path fill="#5e5e5e" d="M115-194c55 1 70 41 70 98S169 2 115 4C84 4 66-9 55-30l1 105H24l-1-265h31l2 30c10-21 28-34 59-34zm-8 174c40 0 45-34 45-75s-6-73-45-74c-42 0-51 32-51 76 0 43 10 73 51 73" id="Z"/><g id="l"><use transform="matrix(0.06230728706673485,0,0,0.06230728706673485,0,0)" xlink:href="#X"/><use transform="matrix(0.06230728706673485,0,0,0.06230728706673485,14.953748896016364,0)" xlink:href="#Y"/><use transform="matrix(0.06230728706673485,0,0,0.06230728706673485,26.169060568028637,0)" xlink:href="#Z"/><use transform="matrix(0.06230728706673485,0,0,0.06230728706673485,38.630517981375604,0)" xlink:href="#M"/><use transform="matrix(0.06230728706673485,0,0,0.06230728706673485,51.091975394722574,0)" xlink:href="#O"/><use transform="matrix(0.06230728706673485,0,0,0.06230728706673485,58.50654255566402,0)" xlink:href="#G"/></g><path fill="#5e5e5e" d="M240 0l2-218c-23 76-54 145-80 218h-23L58-218 59 0H30v-248h44l77 211c21-75 51-140 76-211h43V0h-30" id="aa"/><g id="m"><use transform="matrix(0.06230728706673485,0,0,0.06230728706673485,0,0)" xlink:href="#aa"/><use transform="matrix(0.06230728706673485,0,0,0.06230728706673485,18.62987883295372,0)" xlink:href="#P"/><use transform="matrix(0.06230728706673485,0,0,0.06230728706673485,31.091336246300692,0)" xlink:href="#O"/><use transform="matrix(0.06230728706673485,0,0,0.06230728706673485,38.50590340724214,0)" xlink:href="#R"/><use transform="matrix(0.06230728706673485,0,0,0.06230728706673485,49.72121507925441,0)" xlink:href="#E"/><use transform="matrix(0.06230728706673485,0,0,0.06230728706673485,62.18267249260138,0)" xlink:href="#G"/></g><g id="n"><use transform="matrix(0.06230728706673485,0,0,0.06230728706673485,0,0)" xlink:href="#N"/><use transform="matrix(0.06230728706673485,0,0,0.06230728706673485,16.137587350284328,0)" xlink:href="#M"/><use transform="matrix(0.06230728706673485,0,0,0.06230728706673485,28.599044763631298,0)" xlink:href="#C"/><use transform="matrix(0.06230728706673485,0,0,0.06230728706673485,41.06050217697827,0)" xlink:href="#G"/><use transform="matrix(0.06230728706673485,0,0,0.06230728706673485,47.29123088365175,0)" xlink:href="#O"/><use transform="matrix(0.06230728706673485,0,0,0.06230728706673485,54.705798044593195,0)" xlink:href="#M"/><use transform="matrix(0.06230728706673485,0,0,0.06230728706673485,67.16725545794017,0)" xlink:href="#J"/></g><filter id="k" filterUnits="objectBoundingBox" x="-.03" y="-.05" width="1.06" height="1.25"><feOffset result="offOut" in="SourceAlpha" dy="6"/><feGaussianBlur result="blurOut" in="offOut" stdDeviation="5"/><feColorMatrix result="colorOut" in="blurOut" values="0 0 0 0 0 0 0 0 0 0 0 0 0 0 0 0 0 0 0.5019607843137255 0"/><feBlend in="SourceGraphic" in2="colorOut"/></filter><g id="o"><use transform="matrix(0.06230728706673485,0,0,0.06230728706673485,0,0)" xlink:href="#V"/><use transform="matrix(0.06230728706673485,0,0,0.06230728706673485,14.953748896016364,0)" xlink:href="#O"/><use transform="matrix(0.06230728706673485,0,0,0.06230728706673485,22.36831605695781,0)" xlink:href="#M"/><use transform="matrix(0.06230728706673485,0,0,0.06230728706673485,34.82977347030478,0)" xlink:href="#T"/><use transform="matrix(0.06230728706673485,0,0,0.06230728706673485,47.29123088365175,0)" xlink:href="#W"/><use transform="matrix(0.06230728706673485,0,0,0.06230728706673485,59.75268829699872,0)" xlink:href="#K"/><use transform="matrix(0.06230728706673485,0,0,0.06230728706673485,70.96799996901099,0)" xlink:href="#G"/></g><g id="p"><use transform="matrix(0.06230728706673485,0,0,0.06230728706673485,0,0)" xlink:href="#aa"/><use transform="matrix(0.06230728706673485,0,0,0.06230728706673485,18.62987883295372,0)" xlink:href="#P"/><use transform="matrix(0.06230728706673485,0,0,0.06230728706673485,31.091336246300692,0)" xlink:href="#O"/><use transform="matrix(0.06230728706673485,0,0,0.06230728706673485,38.50590340724214,0)" xlink:href="#R"/><use transform="matrix(0.06230728706673485,0,0,0.06230728706673485,49.72121507925441,0)" xlink:href="#E"/><use transform="matrix(0.06230728706673485,0,0,0.06230728706673485,62.18267249260138,0)" xlink:href="#G"/></g><g id="q"><use transform="matrix(0.06230728706673485,0,0,0.06230728706673485,0,0)" xlink:href="#U"/><use transform="matrix(0.06230728706673485,0,0,0.06230728706673485,12.46145741334697,0)" xlink:href="#M"/><use transform="matrix(0.06230728706673485,0,0,0.06230728706673485,24.92291482669394,0)" xlink:href="#K"/><use transform="matrix(0.06230728706673485,0,0,0.06230728706673485,36.13822649870622,0)" xlink:href="#P"/><use transform="matrix(0.06230728706673485,0,0,0.06230728706673485,48.59968391205319,0)" xlink:href="#J"/></g><g id="r"><use transform="matrix(0.06230728706673485,0,0,0.06230728706673485,0,0)" xlink:href="#I"/><use transform="matrix(0.06230728706673485,0,0,0.06230728706673485,14.953748896016364,0)" xlink:href="#L"/><use transform="matrix(0.06230728706673485,0,0,0.06230728706673485,19.876024574288415,0)" xlink:href="#H"/><use transform="matrix(0.06230728706673485,0,0,0.06230728706673485,38.50590340724214,0)" xlink:href="#L"/><use transform="matrix(0.06230728706673485,0,0,0.06230728706673485,43.42817908551419,0)" xlink:href="#J"/><use transform="matrix(0.06230728706673485,0,0,0.06230728706673485,48.35045476378624,0)" xlink:href="#P"/><use transform="matrix(0.06230728706673485,0,0,0.06230728706673485,60.81191217713321,0)" xlink:href="#O"/></g><path fill="#5e5e5e" d="M63-220v92h138v28H63V0H30v-248h175v28H63" id="ab"/><path fill="#5e5e5e" d="M177-190C167-65 218 103 67 71c-23-6-38-20-44-43l32-5c15 47 100 32 89-28v-30C133-14 115 1 83 1 29 1 15-40 15-95c0-56 16-97 71-98 29-1 48 16 59 35 1-10 0-23 2-32h30zM94-22c36 0 50-32 50-73 0-42-14-75-50-75-39 0-46 34-46 75s6 73 46 73" id="ac"/><path fill="#5e5e5e" d="M0 4l72-265h28L28 4H0" id="ad"/><path fill="#5e5e5e" d="M179-190L93 31C79 59 56 82 12 73V49c39 6 53-20 64-50L1-190h34L92-34l54-156h33" id="ae"/><g id="s"><use transform="matrix(0.06230728706673485,0,0,0.06230728706673485,0,0)" xlink:href="#ab"/><use transform="matrix(0.06230728706673485,0,0,0.06230728706673485,13.645295867614932,0)" xlink:href="#P"/><use transform="matrix(0.06230728706673485,0,0,0.06230728706673485,26.106753280961904,0)" xlink:href="#O"/><use transform="matrix(0.06230728706673485,0,0,0.06230728706673485,33.52132044190335,0)" xlink:href="#H"/><use transform="matrix(0.06230728706673485,0,0,0.06230728706673485,52.15119927485707,0)" xlink:href="#L"/><use transform="matrix(0.06230728706673485,0,0,0.06230728706673485,57.07347495312912,0)" xlink:href="#C"/><use transform="matrix(0.06230728706673485,0,0,0.06230728706673485,69.53493236647608,0)" xlink:href="#ac"/><use transform="matrix(0.06230728706673485,0,0,0.06230728706673485,81.99638977982306,0)" xlink:href="#ad"/><use transform="matrix(0.06230728706673485,0,0,0.06230728706673485,88.22711848649655,0)" xlink:href="#ab"/><use transform="matrix(0.06230728706673485,0,0,0.06230728706673485,101.87241435411148,0)" xlink:href="#M"/><use transform="matrix(0.06230728706673485,0,0,0.06230728706673485,114.33387176745845,0)" xlink:href="#O"/><use transform="matrix(0.06230728706673485,0,0,0.06230728706673485,121.74843892839989,0)" xlink:href="#E"/><use transform="matrix(0.06230728706673485,0,0,0.06230728706673485,134.20989634174686,0)" xlink:href="#F"/><use transform="matrix(0.06230728706673485,0,0,0.06230728706673485,145.42520801375912,0)" xlink:href="#G"/><use transform="matrix(0.06230728706673485,0,0,0.06230728706673485,151.6559367204326,0)" xlink:href="#O"/><use transform="matrix(0.06230728706673485,0,0,0.06230728706673485,159.07050388137407,0)" xlink:href="#ae"/></g><g id="t"><use transform="matrix(0.06230728706673485,0,0,0.06230728706673485,0,0)" xlink:href="#X"/><use transform="matrix(0.06230728706673485,0,0,0.06230728706673485,14.953748896016364,0)" xlink:href="#Y"/><use transform="matrix(0.06230728706673485,0,0,0.06230728706673485,26.169060568028637,0)" xlink:href="#Z"/><use transform="matrix(0.06230728706673485,0,0,0.06230728706673485,38.630517981375604,0)" xlink:href="#E"/><use transform="matrix(0.06230728706673485,0,0,0.06230728706673485,51.091975394722574,0)" xlink:href="#O"/><use transform="matrix(0.06230728706673485,0,0,0.06230728706673485,58.50654255566402,0)" xlink:href="#L"/><use transform="matrix(0.06230728706673485,0,0,0.06230728706673485,63.42881823393607,0)" xlink:href="#E"/><use transform="matrix(0.06230728706673485,0,0,0.06230728706673485,75.89027564728303,0)" xlink:href="#C"/><use transform="matrix(0.06230728706673485,0,0,0.06230728706673485,88.35173306063001,0)" xlink:href="#K"/><use transform="matrix(0.06230728706673485,0,0,0.06230728706673485,99.56704473264229,0)" xlink:href="#E"/></g><g id="u"><use transform="matrix(0.06230728706673485,0,0,0.06230728706673485,0,0)" xlink:href="#I"/><use transform="matrix(0.06230728706673485,0,0,0.06230728706673485,14.953748896016364,0)" xlink:href="#R"/><use transform="matrix(0.06230728706673485,0,0,0.06230728706673485,26.169060568028637,0)" xlink:href="#L"/><use transform="matrix(0.06230728706673485,0,0,0.06230728706673485,31.091336246300692,0)" xlink:href="#J"/><use transform="matrix(0.06230728706673485,0,0,0.06230728706673485,36.01361192457274,0)" xlink:href="#J"/><use transform="matrix(0.06230728706673485,0,0,0.06230728706673485,40.935887602844794,0)" xlink:href="#F"/><use transform="matrix(0.06230728706673485,0,0,0.06230728706673485,52.15119927485706,0)" xlink:href="#E"/><use transform="matrix(0.06230728706673485,0,0,0.06230728706673485,64.61265668820403,0)" xlink:href="#G"/></g><path fill="#5e5e5e" d="M140-251c81 0 123 46 123 126C263-46 219 4 140 4 59 4 17-45 17-125s42-126 123-126zm0 227c63 0 89-41 89-101s-29-99-89-99c-61 0-89 39-89 99S79-25 140-24" id="af"/><path fill="#5e5e5e" d="M106-169C34-169 62-67 57 0H25v-261h32l-1 103c12-21 28-36 61-36 89 0 53 116 60 194h-32v-121c2-32-8-49-39-48" id="ag"/><g id="v"><use transform="matrix(0.06230728706673485,0,0,0.06230728706673485,0,0)" xlink:href="#af"/><use transform="matrix(0.06230728706673485,0,0,0.06230728706673485,17.44604037868576,0)" xlink:href="#G"/><use transform="matrix(0.06230728706673485,0,0,0.06230728706673485,23.676769085359243,0)" xlink:href="#ag"/><use transform="matrix(0.06230728706673485,0,0,0.06230728706673485,36.13822649870622,0)" xlink:href="#E"/><use transform="matrix(0.06230728706673485,0,0,0.06230728706673485,48.59968391205319,0)" xlink:href="#O"/></g><g id="w"><use transform="matrix(0.06230728706673485,0,0,0.06230728706673485,0,0)" xlink:href="#B"/><use transform="matrix(0.06230728706673485,0,0,0.06230728706673485,6.230728706673485,0)" xlink:href="#C"/><use transform="matrix(0.06230728706673485,0,0,0.06230728706673485,18.692186120020455,0)" xlink:href="#D"/><use transform="matrix(0.06230728706673485,0,0,0.06230728706673485,29.90749779203273,0)" xlink:href="#E"/><use transform="matrix(0.06230728706673485,0,0,0.06230728706673485,42.3689552053797,0)" xlink:href="#F"/><use transform="matrix(0.06230728706673485,0,0,0.06230728706673485,53.58426687739197,0)" xlink:href="#G"/><use transform="matrix(0.06230728706673485,0,0,0.06230728706673485,59.81499558406546,0)" xlink:href="#M"/><use transform="matrix(0.06230728706673485,0,0,0.06230728706673485,72.27645299741243,0)" xlink:href="#O"/></g><g id="x"><use transform="matrix(0.06230728706673485,0,0,0.06230728706673485,0,0)" xlink:href="#Q"/><use transform="matrix(0.06230728706673485,0,0,0.06230728706673485,12.835301135747379,0)" xlink:href="#O"/><use transform="matrix(0.06230728706673485,0,0,0.06230728706673485,20.249868296688824,0)" xlink:href="#P"/><use transform="matrix(0.06230728706673485,0,0,0.06230728706673485,32.711325710035794,0)" xlink:href="#K"/><use transform="matrix(0.06230728706673485,0,0,0.06230728706673485,43.92663738204807,0)" xlink:href="#R"/></g><path fill="#333" d="M141-36C126-15 110 5 73 4 37 3 15-17 15-53c-1-64 63-63 125-63 3-35-9-54-41-54-24 1-41 7-42 31l-33-3c5-37 33-52 76-52 45 0 72 20 72 64v82c-1 20 7 32 28 27v20c-31 9-61-2-59-35zM48-53c0 20 12 33 32 33 41-3 63-29 60-74-43 2-92-5-92 41" id="ah"/><use transform="matrix(0.06923031896303872,0,0,0.06923031896303872,0,0)" xlink:href="#ah" id="y"/><path fill="#333" d="M115-194c53 0 69 39 70 98 0 66-23 100-70 100C84 3 66-7 56-30L54 0H23l1-261h32v101c10-23 28-34 59-34zm-8 174c40 0 45-34 45-75 0-40-5-75-45-74-42 0-51 32-51 76 0 43 10 73 51 73" id="ai"/><use transform="matrix(0.06923031896303872,0,0,0.06923031896303872,0,0)" xlink:href="#ai" id="z"/><g id="A"><use transform="matrix(0.06230728706673485,0,0,0.06230728706673485,0,0)" xlink:href="#S"/><use transform="matrix(0.06230728706673485,0,0,0.06230728706673485,16.137587350284328,0)" xlink:href="#E"/><use transform="matrix(0.06230728706673485,0,0,0.06230728706673485,28.599044763631298,0)" xlink:href="#ac"/><use transform="matrix(0.06230728706673485,0,0,0.06230728706673485,41.06050217697827,0)" xlink:href="#L"/><use transform="matrix(0.06230728706673485,0,0,0.06230728706673485,45.98277785525032,0)" xlink:href="#M"/><use transform="matrix(0.06230728706673485,0,0,0.06230728706673485,58.44423526859729,0)" xlink:href="#C"/><use transform="matrix(0.06230728706673485,0,0,0.06230728706673485,70.90569268194426,0)" xlink:href="#P"/><use transform="matrix(0.06230728706673485,0,0,0.06230728706673485,83.36715009529124,0)" xlink:href="#J"/></g></defs></g></svg>